<?xml version="1.0" standalone="no"?>
<!DOCTYPE svg PUBLIC "-//W3C//DTD SVG 1.1//EN" "http://www.w3.org/Graphics/SVG/1.1/DTD/svg11.dtd">
<svg width="103mm" height="64mm" viewBox="-52 -45 103 64" xmlns="http://www.w3.org/2000/svg" version="1.1">
<title>OpenSCAD Model</title>
<path d="
M 0.75,-45 L -0.75,-45 L -0.75,-35 L 0.75,-35 z
M 10.6495,-41.9455 L 9.35048,-42.6955 L 4.35048,-34.0353 L 5.64952,-33.2853 z
M -4.35048,-34.0353 L -9.35048,-42.6955 L -10.6495,-41.9455 L -5.64952,-33.2853 z
M 17.6955,-34.3505 L 16.9455,-35.6495 L 8.28525,-30.6495 L 9.03525,-29.3505 z
M -8.28525,-30.6495 L -16.9455,-35.6495 L -17.6955,-34.3505 L -9.03525,-29.3505 z
M 3.03765,-15.1844 L 3.03765,-15.1916 L 3.03765,-15.2035 L 3.03765,-15.2201 L 3.20854,-15.697 L 3.4174,-16.1787
 L 3.66424,-16.6651 L 3.94905,-17.1563 L 4.22908,-17.6072 L 4.49963,-18.0106 L 4.76073,-18.3666 L 5.01235,-18.675
 L 5.72908,-19.6195 L 6.24645,-20.6683 L 6.56446,-21.8215 L 6.68311,-23.0792 L 6.53125,-24.427 L 6.15153,-25.6609
 L 5.54397,-26.7809 L 4.70855,-27.7869 L 3.7164,-28.6056 L 2.60085,-29.2012 L 1.36189,-29.5738 L -0.00049,-29.7233
 L -1.41028,-29.5548 L -2.67767,-29.1632 L -3.80267,-28.5487 L -4.78527,-27.7111 L -5.60172,-26.6954 L -6.19035,-25.5849
 L -6.55113,-24.3795 L -6.68409,-23.0792 L -6.56534,-21.8358 L -6.24719,-20.6873 L -5.72961,-19.6337 L -5.01263,-18.675
 L -4.76099,-18.3666 L -4.49985,-18.0106 L -4.2292,-17.6072 L -3.94905,-17.1563 L -3.66417,-16.6651 L -3.41726,-16.1787
 L -3.20833,-15.697 L -3.03737,-15.2201 L -3.03737,-15.182 L 3.03765,-15.182 z
M -1.78437,-16.967 L -1.99806,-17.3799 L -2.22124,-17.7833 L -2.4539,-18.1771 L -2.69605,-18.5615 L -2.94056,-18.9269
 L -3.18031,-19.2638 L -3.4153,-19.5723 L -3.64553,-19.8522 L -4.16314,-20.5806 L -4.53828,-21.3612 L -4.77095,-22.194
 L -4.86115,-23.079 L -4.76623,-23.9688 L -4.51941,-24.8158 L -4.12069,-25.6202 L -3.57007,-26.3818 L -2.87942,-27.0176
 L -2.06059,-27.4827 L -1.1136,-27.7769 L -0.03843,-27.9003 L 0.960794,-27.7983 L 1.8698,-27.5302 L 2.6886,-27.096
 L 3.41719,-26.4957 L 4.03428,-25.7697 L 4.48049,-24.9582 L 4.75583,-24.0613 L 4.86031,-23.079 L 4.77009,-22.194
 L 4.5375,-21.3612 L 4.16256,-20.5806 L 3.64525,-19.8522 L 3.41503,-19.5723 L 3.18006,-19.2638 L 2.94036,-18.9269
 L 2.69591,-18.5615 L 2.45384,-18.1771 L 2.22127,-17.7833 L 1.99821,-17.3799 L 1.78465,-16.967 z
M -2.78577,-23.0915 L -2.60064,-23.2101 L -2.48197,-23.3953 L -2.42977,-23.6469 L -2.38227,-24.0124 L -2.27784,-24.3496
 L -2.11648,-24.6582 L -1.89819,-24.9384 L -1.61823,-25.1568 L -1.30977,-25.3182 L -0.972825,-25.4226 L -0.60739,-25.4701
 L -0.355915,-25.5223 L -0.17087,-25.641 L -0.052255,-25.8261 L -7e-05,-26.0777 L -0.0522638,-26.3293 L -0.170905,-26.5144
 L -0.355994,-26.6331 L -0.60753,-26.6853 L -1.22689,-26.6165 L -1.79403,-26.4479 L -2.30895,-26.1797 L -2.77165,-25.8117
 L -3.1395,-25.3488 L -3.40767,-24.8337 L -3.57616,-24.2664 L -3.64497,-23.6469 L -3.59277,-23.3953 L -3.4741,-23.2101
 L -3.28897,-23.0915 L -3.03737,-23.0393 z
M 1.46668,-10.3291 L 1.72771,-10.4335 L 1.96025,-10.5949 L 2.16433,-10.8133 L 2.84767,-11.8009 L 2.91656,-11.9575
 L 2.97119,-12.1237 L 3.01155,-12.2993 L 3.03765,-12.4844 L 3.03765,-13.9654 L -3.03737,-13.9654 L -3.03737,-12.4842
 L -3.02551,-12.2991 L -2.98991,-12.1235 L -2.93059,-11.9574 L -2.84753,-11.8008 L -2.16405,-10.8133 L -1.95997,-10.5949
 L -1.72743,-10.4335 L -1.4664,-10.3291 L -1.17691,-10.2816 L 1.17719,-10.2816 z
M -45.2063,5.84922 L -44.4069,5.64456 L -43.6856,5.30346 L -43.0424,4.82592 L -42.5138,4.22438 L -42.1362,3.51138
 L -41.9096,2.68694 L -41.8341,1.75104 L -41.9065,0.85581 L -42.1237,0.05328 L -42.4856,-0.65655 L -42.9923,-1.27368
 L -43.6095,-1.77317 L -44.3027,-2.12994 L -45.0719,-2.344 L -45.9172,-2.41536 L -46.4411,-2.38416 L -46.9463,-2.29056
 L -47.4327,-2.13456 L -47.9003,-1.91616 L -47.9003,-0.41772 L -47.4993,-0.680167 L -47.0629,-0.86763 L -46.5911,-0.980107
 L -46.0838,-1.0176 L -45.4968,-0.971213 L -44.9693,-0.83205 L -44.5011,-0.600113 L -44.0923,-0.2754 L -43.7605,0.129577
 L -43.5235,0.60231 L -43.3814,1.1428 L -43.334,1.75104 L -43.3777,2.38639 L -43.509,2.94147 L -43.7277,3.41629
 L -44.0339,3.81084 L -44.4172,4.12096 L -44.8672,4.34247 L -45.3838,4.47538 L -45.9671,4.51968 L -46.527,4.47435
 L -47.0234,4.33836 L -47.4562,4.11171 L -47.8255,3.7944 L -48.1207,3.39477 L -48.3316,2.92116 L -48.4582,2.37357
 L -48.5003,1.752 L -48.5003,-5.91744 L -50.0002,-5.91744 L -50.0002,1.7502 L -49.9325,2.65244 L -49.7294,3.45882
 L -49.3909,4.16936 L -48.917,4.78404 L -48.3337,5.2799 L -47.6671,5.63409 L -46.9171,5.8466 L -46.0838,5.91744
 z
M -22.4837,4.35072 L -22.7056,4.3476 L -22.9045,4.33824 L -23.0805,4.32264 L -23.2336,4.3008 L -23.3763,4.26901
 L -23.5211,4.22367 L -23.668,4.16479 L -23.8169,4.09236 L -23.957,3.99962 L -24.0774,3.87981 L -24.1779,3.73292
 L -24.2587,3.55896 L -24.3206,3.35735 L -24.3649,3.12762 L -24.3914,2.86979 L -24.4003,2.58384 L -24.4003,-5.91744
 L -25.9001,-5.91744 L -25.9001,2.58204 L -25.8517,3.38509 L -25.7064,4.06107 L -25.4642,4.60999 L -25.1252,5.03184
 L -24.6695,5.34537 L -24.0773,5.56932 L -23.3488,5.70369 L -22.4837,5.74848 z
M -1.4505,4.2816 L -2.73378,4.2816 L -3.6051,4.20505 L -4.36914,3.97539 L -5.0259,3.59263 L -5.57538,3.05676
 L -6.01126,2.40112 L -6.32736,1.65903 L -6.52366,0.830498 L -6.60018,-0.08448 L -6.52366,-0.999458 L -6.32736,-1.82799
 L -6.01126,-2.57008 L -5.57538,-3.22572 L -5.0259,-3.76159 L -4.36914,-4.14435 L -3.6051,-4.37401 L -2.73378,-4.45056
 L -1.4505,-4.45056 L -1.4505,-5.91744 L -2.53386,-5.91744 L -3.80302,-5.82213 L -4.92741,-5.5362 L -5.90704,-5.05965
 L -6.7419,-4.39248 L -7.41006,-3.55141 L -7.8897,-2.55306 L -8.18082,-1.39742 L -8.28342,-0.08448 L -8.18082,1.22846
 L -7.8897,2.38413 L -7.41006,3.38252 L -6.7419,4.22364 L -5.90704,4.89076 L -4.92741,5.36727 L -3.80302,5.65318
 L -2.53386,5.74848 L -1.4505,5.74848 z
M -19.8899,-3.66902 L -19.7086,-3.72057 L -19.5566,-3.80648 L -19.4337,-3.92676 L -19.3389,-4.06792 L -19.2712,-4.21635
 L -19.2305,-4.37206 L -19.217,-4.53504 L -19.2305,-4.69801 L -19.2712,-4.8537 L -19.3389,-5.0021 L -19.4337,-5.1432
 L -19.5566,-5.26353 L -19.7086,-5.34948 L -19.8899,-5.40105 L -20.1003,-5.41824 L -20.3107,-5.40105 L -20.4919,-5.34948
 L -20.644,-5.26353 L -20.7669,-5.1432 L -20.8617,-5.00209 L -20.9293,-4.8537 L -20.97,-4.69801 L -20.9835,-4.53504
 L -20.97,-4.37154 L -20.9293,-4.21428 L -20.8617,-4.06326 L -20.7669,-3.91848 L -20.644,-3.80182 L -20.4919,-3.7185
 L -20.3107,-3.6685 L -20.1003,-3.65184 z
M 27.433,4.35072 L 27.2013,4.34759 L 26.9893,4.33821 L 26.7971,4.32257 L 26.6247,4.30068 L 26.4596,4.26888
 L 26.2893,4.22352 L 26.1138,4.1646 L 25.9331,4.09212 L 25.7608,3.99873 L 25.6102,3.8772 L 25.4816,3.72753
 L 25.3748,3.54972 L 25.2909,3.34526 L 25.231,3.11577 L 25.1951,2.86124 L 25.1831,2.58168 L 25.1831,-0.85632
 L 27.433,-0.85632 L 27.433,-2.25408 L 25.1831,-2.25408 L 25.1831,-3.83616 L 22.2001,-0.85632 L 23.6833,-0.85632
 L 23.6833,2.57952 L 23.7405,3.36968 L 23.9124,4.03893 L 24.1988,4.58726 L 24.5998,5.01468 L 25.1206,5.33572
 L 25.7665,5.56503 L 26.5372,5.70262 L 27.433,5.74848 z
M 33.2757,5.89713 L 33.6871,5.8362 L 34.084,5.73465 L 34.4662,5.59248 L 34.8287,5.4149 L 35.1662,5.2071
 L 35.4787,4.9691 L 35.7662,4.70088 L 36.0261,4.40558 L 36.2557,4.08633 L 36.4552,3.74312 L 36.6244,3.37596
 L 36.7593,2.99005 L 36.8557,2.59059 L 36.9135,2.17759 L 36.9328,1.75104 L 36.913,1.32449 L 36.8537,0.91149
 L 36.7547,0.512033 L 36.6161,0.12612 L 36.4427,-0.241043 L 36.239,-0.58425 L 36.0052,-0.903503 L 35.7411,-1.1988
 L 35.4505,-1.46702 L 35.137,-1.70502 L 34.8006,-1.91282 L 34.4413,-2.0904 L 34.0637,-2.23257 L 33.6726,-2.33412
 L 33.2679,-2.39505 L 32.8497,-2.41536 L 32.0112,-2.33933 L 31.2457,-2.11122 L 30.553,-1.73105 L 29.9332,-1.1988
 L 29.4229,-0.57069 L 29.0583,0.13032 L 28.8396,0.90423 L 28.7667,1.75104 L 28.786,2.17759 L 28.8438,2.59059
 L 28.9401,2.99005 L 29.075,3.37596 L 29.2442,3.74312 L 29.4437,4.08633 L 29.6733,4.40558 L 29.9332,4.70088
 L 30.2202,4.9691 L 30.5311,5.2071 L 30.866,5.4149 L 31.2248,5.59248 L 31.6045,5.73465 L 32.0019,5.8362
 L 32.4169,5.89713 L 32.8497,5.91744 z
M 32.2951,4.47173 L 31.7977,4.32789 L 31.3576,4.08815 L 30.9748,3.75252 L 30.665,3.3397 L 30.4436,2.86851
 L 30.3108,2.33896 L 30.2666,1.75104 L 30.3108,1.16313 L 30.4436,0.6336 L 30.665,0.16245 L 30.9748,-0.25032
 L 31.3576,-0.586005 L 31.7977,-0.82578 L 32.2951,-0.969645 L 32.8497,-1.0176 L 33.4111,-0.969128 L 33.9122,-0.82371
 L 34.3528,-0.581348 L 34.733,-0.24204 L 35.0392,0.173362 L 35.2579,0.64401 L 35.3892,1.1699 L 35.4329,1.75104
 L 35.3892,2.33218 L 35.2579,2.85807 L 35.0392,3.32872 L 34.733,3.74412 L 34.3528,4.08343 L 33.9122,4.32579
 L 33.4111,4.47121 L 32.8497,4.51968 z
M 10.907,5.8589 L 11.6121,5.68326 L 12.2652,5.39053 L 12.8662,4.98072 L 11.8663,3.99744 L 11.509,4.22592
 L 11.1038,4.38912 L 10.6508,4.48704 L 10.1498,4.51968 L 9.59406,4.47178 L 9.09354,4.32807 L 8.64822,4.08856
 L 8.2581,3.75324 L 7.94095,3.34081 L 7.71441,2.87007 L 7.57849,2.34103 L 7.53318,1.75368 L 7.57537,1.19131
 L 7.70193,0.67059 L 7.91287,0.191528 L 8.20818,-0.24588 L 8.57744,-0.610387 L 9.01023,-0.87075 L 9.50654,-1.02697
 L 10.0664,-1.07904 L 10.3528,-1.06293 L 10.6122,-1.0146 L 10.8445,-0.93405 L 11.0497,-0.82128 L 11.2173,-0.676282
 L 11.3371,-0.49905 L 11.409,-0.289583 L 11.4329,-0.04788 L 11.4059,0.32271 L 11.3246,0.63612 L 11.1892,0.89235
 L 10.9996,1.0914 L 10.7403,1.24055 L 10.3956,1.34709 L 9.96541,1.41101 L 9.44982,1.43232 L 8.64978,1.43232
 L 8.64978,2.71488 L 9.33306,2.71488 L 10.9298,2.54103 L 12.0704,2.01948 L 12.7547,1.15023 L 12.9829,-0.06672
 L 12.8058,-1.05051 L 12.2746,-1.76988 L 11.3893,-2.22483 L 10.1498,-2.41536 L 9.23422,-2.36851 L 8.42073,-2.16123
 L 7.70932,-1.79353 L 7.09998,-1.2654 L 6.61147,-0.610245 L 6.26253,0.13866 L 6.05317,0.981315 L 5.98338,1.91772
 L 6.0542,2.76036 L 6.26667,3.52176 L 6.62078,4.20192 L 7.11654,4.80084 L 7.7311,5.28935 L 8.44149,5.63829
 L 9.24772,5.84765 L 10.1498,5.91744 z
M -35.4099,5.8589 L -34.7047,5.68326 L -34.0517,5.39053 L -33.4507,4.98072 L -34.4506,3.99744 L -34.8079,4.22592
 L -35.213,4.38912 L -35.6661,4.48704 L -36.1671,4.51968 L -36.7228,4.47178 L -37.2233,4.32807 L -37.6687,4.08856
 L -38.0588,3.75324 L -38.3759,3.34081 L -38.6025,2.87007 L -38.7384,2.34103 L -38.7837,1.75368 L -38.7415,1.19131
 L -38.6149,0.67059 L -38.404,0.191528 L -38.1087,-0.24588 L -37.7394,-0.610387 L -37.3066,-0.87075 L -36.8103,-1.02697
 L -36.2505,-1.07904 L -35.964,-1.06293 L -35.7047,-1.0146 L -35.4724,-0.93405 L -35.2672,-0.82128 L -35.0995,-0.676282
 L -34.9798,-0.49905 L -34.9079,-0.289583 L -34.8839,-0.04788 L -34.911,0.32271 L -34.9923,0.63612 L -35.1277,0.89235
 L -35.3173,1.0914 L -35.5766,1.24055 L -35.9213,1.34709 L -36.3515,1.41101 L -36.8671,1.43232 L -37.6671,1.43232
 L -37.6671,2.71488 L -36.9838,2.71488 L -35.387,2.54103 L -34.2465,2.01948 L -33.5621,1.15023 L -33.334,-0.06672
 L -33.5111,-1.05051 L -34.0423,-1.76988 L -34.9276,-2.22483 L -36.1671,-2.41536 L -37.0827,-2.36851 L -37.8961,-2.16123
 L -38.6076,-1.79353 L -39.2169,-1.2654 L -39.7054,-0.610245 L -40.0543,0.13866 L -40.2637,0.981315 L -40.3335,1.91772
 L -40.2627,2.76036 L -40.0502,3.52176 L -39.6961,4.20192 L -39.2003,4.80084 L -38.5858,5.28935 L -37.8754,5.63829
 L -37.0692,5.84765 L -36.1671,5.91744 z
M -30.4503,1.1952 L -30.4305,0.644768 L -30.3711,0.19443 L -30.2722,-0.155812 L -30.1336,-0.40596 L -30.0378,-0.507082
 L -29.9337,-0.59361 L -29.8212,-0.665542 L -29.7004,-0.72288 L -29.5796,-0.767707 L -29.467,-0.80211 L -29.3629,-0.826087
 L -29.2671,-0.83964 L -29.166,-0.846938 L -29.0462,-0.85215 L -28.9077,-0.855277 L -28.7504,-0.85632 L -26.9839,-0.85632
 L -26.9839,-2.25408 L -28.4504,-2.25408 L -28.7582,-2.252 L -29.0317,-2.24574 L -29.2707,-2.23532 L -29.4754,-2.22072
 L -29.6707,-2.19467 L -29.8816,-2.14986 L -30.1081,-2.0863 L -30.3503,-2.004 L -30.5909,-1.90085 L -30.8128,-1.77477
 L -31.0159,-1.62575 L -31.2003,-1.4538 L -31.5138,-1.01304 L -31.7377,-0.42432 L -31.872,0.31236 L -31.9168,1.197
 L -31.9168,5.74848 L -30.4503,5.74848 z
M 48.6082,5.60885 L 49.5664,5.18997 L 50.1413,4.49183 L 50.333,3.51444 L 50.3288,3.35552 L 50.3163,3.19557
 L 50.2954,3.03458 L 50.2663,2.87256 L 50.222,2.70898 L 50.1559,2.54331 L 50.0679,2.37556 L 49.958,2.20572
 L 49.8242,2.0437 L 49.6643,1.89939 L 49.4784,1.7728 L 49.2664,1.66392 L 49.0112,1.5576 L 48.6956,1.4388
 L 48.3196,1.30752 L 47.8832,1.16376 L 47.4671,1.02986 L 47.152,0.92826 L 46.9379,0.858975 L 46.8249,0.822
 L 46.7562,0.79695 L 46.675,0.76356 L 46.5812,0.72183 L 46.475,0.67176 L 46.3698,0.617985 L 46.2791,0.56526
 L 46.2031,0.513585 L 46.1416,0.46296 L 46.089,0.409207 L 46.0395,0.34815 L 45.9932,0.279788 L 45.95,0.20412
 L 45.9135,0.12219 L 45.8875,0.03504 L 45.8719,-0.05733 L 45.8667,-0.15492 L 45.8886,-0.31251 L 45.9542,-0.45132
 L 46.0635,-0.57135 L 46.2166,-0.6726 L 46.4,-0.752978 L 46.6,-0.81039 L 46.8166,-0.844838 L 47.0499,-0.85632
 L 49.9997,-0.85632 L 49.9997,-2.25408 L 47.0499,-2.25408 L 46.5124,-2.22019 L 46.0166,-2.11854 L 45.5624,-1.94911
 L 45.1499,-1.71192 L 44.8073,-1.41118 L 44.5625,-1.05099 L 44.4157,-0.631358 L 44.3667,-0.15228 L 44.3953,0.231885
 L 44.4813,0.58374 L 44.6245,0.903285 L 44.825,1.19052 L 45.0667,1.44283 L 45.3333,1.65762 L 45.625,1.83488
 L 45.9416,1.9746 L 46.2707,2.09185 L 46.5999,2.20182 L 46.9291,2.3045 L 47.2582,2.39988 L 47.5749,2.49677
 L 47.8665,2.60409 L 48.1332,2.72183 L 48.3748,2.85 L 48.5753,2.99172 L 48.7185,3.15012 L 48.8045,3.3252
 L 48.8331,3.51696 L 48.7352,3.88173 L 48.4415,4.14228 L 47.952,4.29861 L 47.2666,4.35072 L 44.3834,4.35072
 L 44.3834,5.74848 L 47.2666,5.74848 z
M 39.8999,1.1952 L 39.9197,0.644768 L 39.9791,0.19443 L 40.0781,-0.155812 L 40.2166,-0.40596 L 40.3124,-0.507082
 L 40.4165,-0.59361 L 40.529,-0.665542 L 40.6498,-0.72288 L 40.7707,-0.767707 L 40.8832,-0.80211 L 40.9873,-0.826087
 L 41.0831,-0.83964 L 41.1842,-0.846938 L 41.304,-0.85215 L 41.4426,-0.855277 L 41.5999,-0.85632 L 43.3664,-0.85632
 L 43.3664,-2.25408 L 41.8999,-2.25408 L 41.592,-2.252 L 41.3186,-2.24574 L 41.0795,-2.23532 L 40.8748,-2.22072
 L 40.6796,-2.19467 L 40.4686,-2.14986 L 40.2421,-2.0863 L 39.9999,-2.004 L 39.7593,-1.90085 L 39.5374,-1.77477
 L 39.3343,-1.62575 L 39.1499,-1.4538 L 38.8365,-1.01304 L 38.6125,-0.42432 L 38.4782,0.31236 L 38.4334,1.197
 L 38.4334,5.74848 L 39.8999,5.74848 z
M 21.1996,0.84696 L 21.1455,0.140483 L 20.983,-0.47847 L 20.7121,-1.0099 L 20.333,-1.4538 L 19.8528,-1.80392
 L 19.2789,-2.05401 L 18.6112,-2.20406 L 17.8498,-2.25408 L 15.1,-2.25408 L 15.1,-0.85632 L 17.7664,-0.85632
 L 18.6268,-0.73011 L 19.2413,-0.35148 L 19.6101,0.27957 L 19.733,1.16304 L 19.733,4.35072 L 17.5331,4.35072
 L 16.8186,4.28181 L 16.3082,4.07508 L 16.002,3.73053 L 15.8999,3.24816 L 15.927,2.98037 L 16.0083,2.74494
 L 16.1437,2.54189 L 16.3333,2.3712 L 16.5718,2.23596 L 16.8541,2.13936 L 17.1801,2.0814 L 17.5498,2.06208
 L 17.9904,2.09232 L 18.3956,2.18304 L 18.7654,2.33424 L 19.0997,2.54592 L 19.0997,1.04832 L 18.681,0.93072
 L 18.2748,0.84672 L 17.881,0.79632 L 17.4998,0.77952 L 16.8613,0.81912 L 16.279,0.93792 L 15.753,1.13592
 L 15.2833,1.41312 L 14.8969,1.7664 L 14.6209,2.19264 L 14.4553,2.69184 L 14.4001,3.264 L 14.4521,3.83616
 L 14.6084,4.33536 L 14.8688,4.7616 L 15.2333,5.11488 L 15.6864,5.39208 L 16.2124,5.59008 L 16.8113,5.70888
 L 17.4831,5.74848 L 21.1996,5.74848 z
M 1.68318,1.1952 L 1.70297,0.644768 L 1.76235,0.19443 L 1.86131,-0.155812 L 1.99986,-0.40596 L 2.09565,-0.507082
 L 2.19978,-0.59361 L 2.31225,-0.665542 L 2.43306,-0.72288 L 2.55392,-0.767707 L 2.66643,-0.80211 L 2.77058,-0.826087
 L 2.86638,-0.83964 L 2.96744,-0.846938 L 3.08724,-0.85215 L 3.2258,-0.855277 L 3.3831,-0.85632 L 5.14962,-0.85632
 L 5.14962,-2.25408 L 3.6831,-2.25408 L 3.37527,-2.252 L 3.10182,-2.24574 L 2.86275,-2.23532 L 2.65806,-2.22072
 L 2.4628,-2.19467 L 2.25189,-2.14986 L 2.02534,-2.0863 L 1.78314,-2.004 L 1.54255,-1.90085 L 1.32069,-1.77477
 L 1.11757,-1.62575 L 0.93318,-1.4538 L 0.619703,-1.01304 L 0.39579,-0.42432 L 0.261443,0.31236 L 0.21666,1.197
 L 0.21666,5.74848 L 1.68318,5.74848 z
M -15.4502,-0.85632 L -13.5503,-0.85632 L -13.3098,-0.846412 L -13.0879,-0.81669 L -12.8848,-0.767152 L -12.7005,-0.6978
 L -12.5359,-0.615465 L -12.3921,-0.52686 L -12.2692,-0.431985 L -12.1671,-0.33084 L -12.0806,-0.219322 L -12.0046,-0.09321
 L -11.939,0.0474975 L -11.8838,0.2028 L -11.839,0.35811 L -11.8046,0.49884 L -11.7807,0.62499 L -11.7671,0.73656
 L -11.7598,0.846518 L -11.7546,0.96795 L -11.7515,1.10086 L -11.7505,1.24524 L -11.7505,5.74848 L -10.2839,5.74848
 L -10.2839,1.23036 L -10.2959,0.70674 L -10.3318,0.23628 L -10.3917,-0.18102 L -10.4756,-0.54516 L -10.6042,-0.870795
 L -10.7985,-1.17246 L -11.0584,-1.45015 L -11.3839,-1.70388 L -11.8494,-1.94459 L -12.4463,-2.11653 L -13.1744,-2.21969
 L -14.0337,-2.25408 L -16.9168,-2.25408 L -16.9168,5.74848 L -15.4502,5.74848 z
M -19.2337,-2.25408 L -21.4001,-2.25408 L -22.0667,-0.85632 L -20.7002,-0.85632 L -20.7002,5.74848 L -19.2337,5.74848
 z
M -26.2918,15.872 L -26.1261,15.8538 L -25.962,15.8408 L -25.7997,15.833 L -25.6391,15.8304 L -25.1612,15.8621
 L -24.7416,15.9572 L -24.3801,16.1157 L -24.0767,16.3376 L -23.8367,16.6177 L -23.6653,16.9508 L -23.5624,17.3368
 L -23.5281,17.7759 L -23.5281,18.7904 L -22.306,18.7904 L -22.306,17.7907 L -22.4127,16.7536 L -22.733,15.9474
 L -23.2668,15.372 L -24.0142,15.0275 L -22.3337,12.1216 L -23.6808,12.1216 L -25.1253,14.7776 L -25.4169,14.7463
 L -25.7085,14.7359 L -26.0002,14.7463 L -26.2918,14.7776 L -26.2918,9.0688 L -27.5139,9.0688 L -27.5139,18.7904
 L -26.2918,18.7904 z
M 50.6246,9.0688 L 49.3747,9.0688 L 49.3747,17.6256 L 47.3609,17.6256 L 46.8953,17.5874 L 46.4843,17.4728
 L 46.128,17.2817 L 45.8263,17.0143 L 45.5863,16.6835 L 45.4149,16.3023 L 45.312,15.8707 L 45.2777,15.3888
 L 45.3138,14.9125 L 45.4218,14.484 L 45.6019,14.1033 L 45.8541,13.7703 L 46.1583,13.4998 L 46.4947,13.3066
 L 46.8632,13.1906 L 47.2637,13.152 L 47.7082,13.1832 L 48.1248,13.277 L 48.5137,13.4332 L 48.8747,13.6519
 L 48.8747,12.4032 L 48.4928,12.2212 L 48.097,12.0912 L 47.6873,12.0132 L 47.2637,11.9872 L 46.6132,12.0484
 L 46.0086,12.2319 L 45.4501,12.5378 L 44.9375,12.9661 L 44.5092,13.4846 L 44.2032,14.0612 L 44.0196,14.6959
 L 43.9584,15.3888 L 44.0175,16.093 L 44.1945,16.7338 L 44.4896,17.3113 L 44.9027,17.8255 L 45.4105,18.2476
 L 45.9895,18.5492 L 46.6396,18.7301 L 47.3609,18.7904 L 50.6246,18.7904 z
M 25.2172,18.8743 L 25.8834,18.7038 L 26.4845,18.4196 L 27.0205,18.0216 L 27.461,17.5203 L 27.7756,16.9261
 L 27.9644,16.2391 L 28.0274,15.4592 L 27.967,14.7132 L 27.786,14.0444 L 27.4844,13.4529 L 27.0622,12.9386
 L 26.5479,12.5224 L 25.9702,12.225 L 25.3292,12.0467 L 24.6248,11.9872 L 24.1882,12.0132 L 23.7672,12.0912
 L 23.3619,12.2212 L 22.9722,12.4032 L 22.9722,13.6519 L 23.3063,13.4332 L 23.67,13.277 L 24.0632,13.1832
 L 24.486,13.152 L 24.9751,13.1907 L 25.4147,13.3066 L 25.8049,13.4999 L 26.1456,13.7705 L 26.422,14.108
 L 26.6195,14.5019 L 26.738,14.9523 L 26.7774,15.4592 L 26.741,15.9887 L 26.6316,16.4512 L 26.4493,16.8469
 L 26.1942,17.1757 L 25.8747,17.4341 L 25.4997,17.6187 L 25.0692,17.7295 L 24.5831,17.7664 L 24.1166,17.7286
 L 23.703,17.6153 L 23.3423,17.4264 L 23.0346,17.162 L 22.7885,16.829 L 22.6128,16.4343 L 22.5073,15.978
 L 22.4721,15.46 L 22.4721,9.0688 L 21.2223,9.0688 L 21.2223,15.4585 L 21.2787,16.2104 L 21.4479,16.8823
 L 21.73,17.4745 L 22.125,17.9867 L 22.611,18.3999 L 23.1666,18.6951 L 23.7915,18.8722 L 24.486,18.9312
 z
M 43.2637,17.6256 L 43.0789,17.623 L 42.9131,17.6152 L 42.7664,17.6022 L 42.6388,17.584 L 42.5199,17.5575
 L 42.3993,17.5197 L 42.2769,17.4707 L 42.1527,17.4103 L 42.036,17.333 L 41.9357,17.2332 L 41.8519,17.1108
 L 41.7846,16.9658 L 41.733,16.7978 L 41.6961,16.6063 L 41.674,16.3915 L 41.6666,16.1532 L 41.6666,9.0688
 L 40.4167,9.0688 L 40.4167,16.1517 L 40.4571,16.8209 L 40.5782,17.3842 L 40.78,17.8417 L 41.0626,18.1932
 L 41.4423,18.4545 L 41.9357,18.6411 L 42.5429,18.7531 L 43.2637,18.7904 z
M -44.4169,13.2864 L -42.8336,13.2864 L -42.6332,13.2947 L -42.4483,13.3194 L -42.2791,13.3607 L -42.1254,13.4185
 L -41.9883,13.4871 L -41.8685,13.561 L -41.7661,13.64 L -41.681,13.7243 L -41.609,13.8172 L -41.5456,13.9223
 L -41.4909,14.0396 L -41.4449,14.169 L -41.4076,14.2984 L -41.3789,14.4157 L -41.3589,14.5208 L -41.3476,14.6138
 L -41.3416,14.7054 L -41.3372,14.8066 L -41.3346,14.9174 L -41.3337,15.0377 L -41.3337,18.7904 L -40.1116,18.7904
 L -40.1116,15.0253 L -40.1216,14.589 L -40.1516,14.1969 L -40.2015,13.8491 L -40.2713,13.5457 L -40.3785,13.2743
 L -40.5404,13.0229 L -40.757,12.7915 L -41.0282,12.5801 L -41.4162,12.3795 L -41.9136,12.2362 L -42.5203,12.1503
 L -43.2364,12.1216 L -44.4169,12.1216 L -44.4169,9.0688 L -45.639,9.0688 L -45.639,18.7904 L -44.4169,18.7904
 z
M 38.0086,10.9425 L 38.1596,10.8995 L 38.2863,10.8279 L 38.3888,10.7277 L 38.4678,10.6101 L 38.5242,10.4864
 L 38.5581,10.3566 L 38.5694,10.2208 L 38.5581,10.085 L 38.5242,9.95525 L 38.4678,9.83159 L 38.3888,9.714
 L 38.2863,9.61372 L 38.1596,9.5421 L 38.0086,9.49912 L 37.8333,9.4848 L 37.6579,9.49912 L 37.5069,9.5421
 L 37.3802,9.61372 L 37.2778,9.714 L 37.1988,9.83159 L 37.1424,9.95525 L 37.1085,10.085 L 37.0973,10.2208
 L 37.1085,10.3571 L 37.1424,10.4881 L 37.1988,10.614 L 37.2778,10.7346 L 37.3802,10.8318 L 37.5069,10.9013
 L 37.6579,10.9429 L 37.8333,10.9568 z
M -37.186,10.9425 L -37.035,10.8995 L -36.9083,10.8279 L -36.8058,10.7277 L -36.7268,10.6101 L -36.6704,10.4864
 L -36.6365,10.3566 L -36.6253,10.2208 L -36.6365,10.085 L -36.6704,9.95525 L -36.7268,9.83159 L -36.8058,9.714
 L -36.9083,9.61372 L -37.035,9.5421 L -37.186,9.49912 L -37.3613,9.4848 L -37.5367,9.49912 L -37.6877,9.5421
 L -37.8144,9.61372 L -37.9168,9.714 L -37.9958,9.83159 L -38.0522,9.95525 L -38.0861,10.085 L -38.0973,10.2208
 L -38.0861,10.3571 L -38.0522,10.4881 L -37.9958,10.614 L -37.9168,10.7346 L -37.8144,10.8318 L -37.6877,10.9013
 L -37.5367,10.9429 L -37.3613,10.9568 z
M 10.5415,17.6256 L 10.3483,17.623 L 10.1717,17.6152 L 10.0115,17.6021 L 9.86785,17.5839 L 9.73028,17.5574
 L 9.58837,17.5196 L 9.44213,17.4705 L 9.29155,17.4101 L 9.14791,17.3323 L 9.02247,17.231 L 8.91526,17.1063
 L 8.82625,16.9581 L 8.75638,16.7877 L 8.70647,16.5965 L 8.67653,16.3844 L 8.66655,16.1514 L 8.66655,13.2864
 L 10.5415,13.2864 L 10.5415,12.1216 L 8.66655,12.1216 L 8.66655,10.8032 L 6.18065,13.2864 L 7.41665,13.2864
 L 7.41665,16.1496 L 7.46439,16.8081 L 7.6076,17.3658 L 7.84629,17.8227 L 8.18045,18.1789 L 8.61447,18.4464
 L 9.15265,18.6375 L 9.79497,18.7522 L 10.5415,18.7904 z
M -46.9587,17.6256 L -47.1519,17.623 L -47.3285,17.6152 L -47.4887,17.6021 L -47.6324,17.5839 L -47.7699,17.5574
 L -47.9118,17.5196 L -48.0581,17.4705 L -48.2086,17.4101 L -48.3523,17.3323 L -48.4777,17.231 L -48.5849,17.1063
 L -48.6739,16.9581 L -48.7438,16.7877 L -48.7937,16.5965 L -48.8237,16.3844 L -48.8336,16.1514 L -48.8336,13.2864
 L -46.9587,13.2864 L -46.9587,12.1216 L -48.8336,12.1216 L -48.8336,10.8032 L -51.3195,13.2864 L -50.0836,13.2864
 L -50.0836,16.1496 L -50.0358,16.8081 L -49.8926,17.3658 L -49.6539,17.8227 L -49.3197,18.1789 L -48.8857,18.4464
 L -48.3475,18.6375 L -47.7052,18.7522 L -46.9587,18.7904 z
M -3.23024,18.8824 L -2.64263,18.736 L -2.09839,18.4921 L -1.59755,18.1506 L -2.43085,17.3312 L -2.72856,17.5216
 L -3.0662,17.6576 L -3.44376,17.7392 L -3.86125,17.7664 L -4.32435,17.7265 L -4.74145,17.6067 L -5.11255,17.4071
 L -5.43765,17.1277 L -5.70194,16.784 L -5.89072,16.3917 L -6.00399,15.9509 L -6.04175,15.4614 L -6.00659,14.9928
 L -5.90113,14.5588 L -5.72534,14.1596 L -5.47925,13.7951 L -5.17153,13.4913 L -4.81088,13.2744 L -4.39728,13.1442
 L -3.93075,13.1008 L -3.69204,13.1142 L -3.4759,13.1545 L -3.28234,13.2216 L -3.11135,13.3156 L -2.97161,13.4364
 L -2.8718,13.5841 L -2.81191,13.7587 L -2.79195,13.9601 L -2.81452,14.2689 L -2.88222,14.5301 L -2.99507,14.7436
 L -3.15305,14.9095 L -3.36914,15.0338 L -3.65642,15.1226 L -4.01489,15.1758 L -4.44455,15.1936 L -5.11125,15.1936
 L -5.11125,16.2624 L -4.54185,16.2624 L -3.21119,16.1175 L -2.26072,15.6829 L -1.69044,14.9585 L -1.50035,13.9444
 L -1.64791,13.1246 L -2.09058,12.5251 L -2.82836,12.146 L -3.86125,11.9872 L -4.62422,12.0262 L -5.30213,12.199
 L -5.89497,12.5054 L -6.40275,12.9455 L -6.80984,13.4915 L -7.10062,14.1156 L -7.27509,14.8178 L -7.33325,15.5981
 L -7.27423,16.3003 L -7.09718,16.9348 L -6.80208,17.5016 L -6.38895,18.0007 L -5.87682,18.4078 L -5.28482,18.6986
 L -4.61297,18.873 L -3.86125,18.9312 z
M -14.7052,18.8824 L -14.1392,18.736 L -13.608,18.4921 L -13.1115,18.1506 L -13.9448,17.3312 L -14.2382,17.5216
 L -14.5628,17.6576 L -14.9187,17.7392 L -15.3058,17.7664 L -15.7603,17.7269 L -16.1652,17.6083 L -16.5207,17.4107
 L -16.8266,17.134 L -17.0727,16.7922 L -17.2484,16.3991 L -17.3539,15.9548 L -17.3891,15.4592 L -17.3539,14.9636
 L -17.2484,14.5193 L -17.0727,14.1262 L -16.8266,13.7844 L -16.5207,13.5077 L -16.1652,13.3101 L -15.7603,13.1915
 L -15.3058,13.152 L -14.9231,13.18 L -14.5663,13.264 L -14.2356,13.404 L -13.931,13.6 L -13.1115,12.7667
 L -13.608,12.4257 L -14.1392,12.1821 L -14.7052,12.0359 L -15.3058,11.9872 L -15.9989,12.0501 L -16.6339,12.2389
 L -17.2106,12.5536 L -17.7293,12.9941 L -18.1576,13.5258 L -18.4636,14.1138 L -18.6472,14.7583 L -18.7083,15.4592
 L -18.6502,16.1714 L -18.4757,16.822 L -18.1849,17.4109 L -17.7779,17.9382 L -17.2744,18.3726 L -16.6946,18.6829
 L -16.0384,18.8691 L -15.3058,18.9312 z
M 15.7559,18.8824 L 16.3435,18.736 L 16.8877,18.4921 L 17.3886,18.1506 L 16.5553,17.3312 L 16.2575,17.5216
 L 15.9199,17.6576 L 15.5423,17.7392 L 15.1248,17.7664 L 14.6617,17.7265 L 14.2446,17.6067 L 13.8736,17.4071
 L 13.5485,17.1277 L 13.2842,16.784 L 13.0954,16.3917 L 12.9821,15.9509 L 12.9444,15.4614 L 12.9795,14.9928
 L 13.085,14.5588 L 13.2608,14.1596 L 13.5068,13.7951 L 13.8146,13.4913 L 14.1752,13.2744 L 14.5888,13.1442
 L 15.0554,13.1008 L 15.2941,13.1142 L 15.5102,13.1545 L 15.7038,13.2216 L 15.8747,13.3156 L 16.0145,13.4364
 L 16.1143,13.5841 L 16.1742,13.7587 L 16.1942,13.9601 L 16.1716,14.2689 L 16.1039,14.5301 L 15.991,14.7436
 L 15.8331,14.9095 L 15.617,15.0338 L 15.3297,15.1226 L 14.9712,15.1758 L 14.5416,15.1936 L 13.8748,15.1936
 L 13.8748,16.2624 L 14.4442,16.2624 L 15.7749,16.1175 L 16.7254,15.6829 L 17.2957,14.9585 L 17.4857,13.9444
 L 17.3382,13.1246 L 16.8955,12.5251 L 16.1577,12.146 L 15.1248,11.9872 L 14.3619,12.0262 L 13.684,12.199
 L 13.0911,12.5054 L 12.5833,12.9455 L 12.1763,13.4915 L 11.8855,14.1156 L 11.711,14.8178 L 11.6528,15.5981
 L 11.7119,16.3003 L 11.8889,16.9348 L 12.184,17.5016 L 12.5971,18.0007 L 13.1093,18.4078 L 13.7013,18.6986
 L 14.3731,18.873 L 15.1248,18.9312 z
M 35.0136,12.1216 L 33.7915,12.1216 L 33.7915,17.6256 L 32.2082,17.6256 L 32.0077,17.6174 L 31.8228,17.5926
 L 31.6535,17.5513 L 31.4999,17.4936 L 31.3627,17.4249 L 31.243,17.3511 L 31.1405,17.2721 L 31.0555,17.1878
 L 30.9834,17.0948 L 30.9201,16.9897 L 30.8654,16.8724 L 30.8193,16.743 L 30.782,16.6136 L 30.7534,16.4963
 L 30.7334,16.3912 L 30.7221,16.2983 L 30.7161,16.2066 L 30.7117,16.1054 L 30.7091,15.9946 L 30.7082,15.8743
 L 30.7082,12.1216 L 29.4862,12.1216 L 29.4862,15.8867 L 29.4961,16.3231 L 29.5261,16.7151 L 29.576,17.0629
 L 29.6459,17.3664 L 29.753,17.6377 L 29.9149,17.8891 L 30.1315,18.1205 L 30.4028,18.3319 L 30.7907,18.5325
 L 31.2881,18.6758 L 31.8948,18.7617 L 32.611,18.7904 L 35.0136,18.7904 z
M -33.4862,13.2864 L -31.9031,13.2864 L -31.7026,13.2947 L -31.5177,13.3194 L -31.3485,13.3607 L -31.1948,13.4185
 L -31.0577,13.4871 L -30.9379,13.561 L -30.8354,13.64 L -30.7503,13.7243 L -30.6783,13.8172 L -30.6149,13.9223
 L -30.5602,14.0396 L -30.5142,14.169 L -30.4769,14.2984 L -30.4483,14.4157 L -30.4283,14.5208 L -30.417,14.6138
 L -30.411,14.7054 L -30.4066,14.8066 L -30.404,14.9174 L -30.4031,15.0377 L -30.4031,18.7904 L -29.181,18.7904
 L -29.181,15.0253 L -29.191,14.589 L -29.221,14.1969 L -29.2709,13.8491 L -29.3407,13.5457 L -29.4479,13.2743
 L -29.6098,13.0229 L -29.8264,12.7915 L -30.0976,12.5801 L -30.4856,12.3795 L -30.983,12.2362 L -31.5897,12.1503
 L -32.3058,12.1216 L -34.7084,12.1216 L -34.7084,18.7904 L -33.4862,18.7904 z
M -36.6392,12.1216 L -38.4445,12.1216 L -39,13.2864 L -37.8612,13.2864 L -37.8612,18.7904 L -36.6392,18.7904
 z
M 5.34695,14.7058 L 5.30181,14.1171 L 5.1664,13.6013 L 4.94071,13.1584 L 4.62475,12.7885 L 4.22459,12.4967
 L 3.74633,12.2883 L 3.18994,12.1633 L 2.55545,12.1216 L 0.26395,12.1216 L 0.26395,13.2864 L 2.48595,13.2864
 L 3.20292,13.3916 L 3.71505,13.7071 L 4.02233,14.233 L 4.12475,14.9692 L 4.12475,17.6256 L 2.29155,17.6256
 L 1.69611,17.5682 L 1.2708,17.3959 L 1.01561,17.1088 L 0.93055,16.7068 L 0.953119,16.4836 L 1.02082,16.2874
 L 1.13367,16.1182 L 1.29165,15.976 L 1.49043,15.8633 L 1.72565,15.7828 L 1.99733,15.7345 L 2.30545,15.7184
 L 2.6726,15.7436 L 3.01025,15.8192 L 3.3184,15.9452 L 3.59705,16.1216 L 3.59705,14.8736 L 3.24811,14.7756
 L 2.90958,14.7056 L 2.58146,14.6636 L 2.26375,14.6496 L 1.73168,14.6826 L 1.24648,14.7816 L 0.808131,14.9466
 L 0.41665,15.1776 L 0.09465,15.472 L -0.13535,15.8272 L -0.27335,16.2432 L -0.31935,16.72 L -0.27595,17.1968
 L -0.14575,17.6128 L 0.07125,17.968 L 0.37505,18.2624 L 0.752625,18.4934 L 1.19095,18.6584 L 1.69003,18.7574
 L 2.24985,18.7904 L 5.34695,18.7904 z
M 38.5555,12.1216 L 36.7501,12.1216 L 36.1946,13.2864 L 37.3334,13.2864 L 37.3334,18.7904 L 38.5555,18.7904
 z
M -10.9168,14.996 L -10.9003,14.5373 L -10.8508,14.162 L -10.7683,13.8702 L -10.6528,13.6617 L -10.573,13.5774
 L -10.4862,13.5053 L -10.3925,13.4454 L -10.2918,13.3976 L -10.1911,13.3602 L -10.0974,13.3316 L -10.0106,13.3116
 L -9.93075,13.3003 L -9.84654,13.2942 L -9.7467,13.2899 L -9.63124,13.2873 L -9.50015,13.2864 L -8.02805,13.2864
 L -8.02805,12.1216 L -9.25015,12.1216 L -9.50668,12.1233 L -9.73455,12.1286 L -9.93377,12.1372 L -10.1043,12.1494
 L -10.2671,12.1711 L -10.4428,12.2085 L -10.6316,12.2614 L -10.8334,12.33 L -11.0339,12.416 L -11.2188,12.521
 L -11.3881,12.6452 L -11.5418,12.7885 L -11.803,13.1558 L -11.9896,13.6464 L -12.1015,14.2603 L -12.1388,14.9975
 L -12.1388,18.7904 L -10.9168,18.7904 z
M 19.2153,18.9156 L 19.375,18.8687 L 19.5208,18.7906 L 19.6528,18.6813 L 19.7621,18.5494 L 19.8402,18.4036
 L 19.8871,18.244 L 19.9027,18.0704 L 19.8871,17.8968 L 19.8402,17.7372 L 19.7621,17.5914 L 19.6528,17.4595
 L 19.5208,17.3502 L 19.375,17.2721 L 19.2153,17.2252 L 19.0416,17.2096 L 18.868,17.2252 L 18.7083,17.2721
 L 18.5625,17.3502 L 18.4305,17.4595 L 18.3212,17.5914 L 18.2431,17.7372 L 18.1963,17.8968 L 18.1806,18.0704
 L 18.1963,18.244 L 18.2431,18.4036 L 18.3213,18.5494 L 18.4306,18.6813 L 18.5626,18.7906 L 18.7083,18.8687
 L 18.868,18.9156 L 19.0416,18.9312 z
M -20.507,18.9156 L -20.3473,18.8687 L -20.2015,18.7906 L -20.0695,18.6813 L -19.9602,18.5494 L -19.882,18.4036
 L -19.8352,18.244 L -19.8195,18.0704 L -19.8352,17.8968 L -19.882,17.7372 L -19.9602,17.5914 L -20.0695,17.4595
 L -20.2015,17.3502 L -20.3473,17.2721 L -20.507,17.2252 L -20.6806,17.2096 L -20.8543,17.2252 L -21.014,17.2721
 L -21.1598,17.3502 L -21.2918,17.4595 L -21.4011,17.5914 L -21.4792,17.7372 L -21.526,17.8968 L -21.5416,18.0704
 L -21.526,18.244 L -21.4792,18.4036 L -21.401,18.5494 L -21.2916,18.6813 L -21.1597,18.7906 L -21.014,18.8687
 L -20.8543,18.9156 L -20.6806,18.9312 z
" stroke="black" fill="lightgray" stroke-width="0.5"/>
</svg>
